General:

Title: Clear and Present Danger 
Director: Phillip Noyce
Release Date: 3 August 1994 (USA)
Runtime: 141 min 
Genre: Action | Thriller  
Color: Color
IMDb Rating: 6.8/10   28,308 votes           
IMDB Link: http://www.imdb.com/title/tt0109444/
Studio: Paramount Pictures
Language: English
Subtitles: English, English SDH, French, Spanish
Sample Video: yes
Xbox 360 2 CH. Audio: Yes



Plot:

Jack Ryan is back and this time the bad guys are in his own government. When Admiral James Greer becomes sick with cancer, Ryan is appointed acting CIA Deputy Director of Intelligence. Almost before he can draw a breath in his new position, one of the president's closest friends and his family are murdered in their sleep by what appears to by drug cartels. Ryan is called in to investigate, but unknown to him the CIA has already sent a secret field operative to lead an illegal paramilitary force in Colombia against cartels. Things get even more complicated when his team is set up an he loses and agent in the field and a friend of his wife's, who was the murdered agent's secretary and is murdered that same day. Ryan must then risk not only his career, but his life to expose the truth behind the mystery.


Video:

Format: H.264/MPEG-4 AVC
Format/Info: Advanced Video Codec
Format profile: High@L4.0
Format settings, CABAC: Yes
Format settings, ReFrames: 3 frames
Codec ID: avc1
Codec ID/Info: Advanced Video Coding
Duration: 2h 21min
Bit rate mode: Variable
Bit rate: 2048 Kbps
Maximum bit rate: 14.8 Mbps 
Screen Resolution: 1280 x 720
Display aspect ratio: 16:9
Frame rate mode: Constant
Frame rate: 23.976 fps
Resolution: 8 bits
Colorimetry: 4:2:0
Scan type: Progressive
Bits/(Pixel*Frame): 0.093
Stream size: 2.02 GiB (89%)


Audio:

Format: mp4a - MPEG-4 AAC LC
Format/Info: Advanced Audio Codec
Format version: Version 4
Format profile: LC
Format settings, SBR: No
Codec ID: 40
Duration: 2h 21min
Bit rate mode: Variable
Bit rate: 264.6 Kbps
Maximum bit rate: 273 Kbps
Channel(s): 6 channels
Channel positions: Front: L C R, Rear: L R, LFE
Sampling rate: 48.0 KHz
Stream size: 262 MiB (11%)


Hope you all enjoy and keep seeding.

IceBane


